<svg version="1.1" id="Layer_1" xmlns="http://www.w3.org/2000/svg" xmlns:xlink="http://www.w3.org/1999/xlink" x="0px" y="0px"
	 width="100%" viewBox="0 0 1200 1200" enable-background="new 0 0 1200 1200" xml:space="preserve">
<path fill="#000000" opacity="1.000000" stroke="none" 
	d="
M674.000000,1201.000000 
	C449.333344,1201.000000 225.166672,1201.000000 1.000000,1201.000000 
	C1.000000,801.000000 1.000000,401.000000 1.000000,1.000000 
	C401.000000,1.000000 801.000000,1.000000 1201.000000,1.000000 
	C1201.000000,401.000000 1201.000000,801.000000 1201.000000,1201.000000 
	C1025.500000,1201.000000 850.000000,1201.000000 674.000000,1201.000000 
M714.448792,1011.997498 
	C715.190063,1011.683899 715.905334,1011.268066 716.676453,1011.071533 
	C738.342529,1005.550903 759.095215,997.497131 779.357544,988.172607 
	C802.209167,977.656677 824.331299,965.682434 844.511230,950.655151 
	C861.093811,938.306641 877.288574,925.313049 892.647644,911.486145 
	C904.406555,900.900330 915.050659,888.958313 925.347900,876.899902 
	C935.452698,865.066895 944.997986,852.676697 953.890747,839.905579 
	C969.828552,817.017090 982.912476,792.484253 993.717896,766.744934 
	C1001.985291,747.051270 1009.299866,727.014648 1013.915649,706.151184 
	C1017.437439,690.232788 1020.474365,674.174866 1022.887207,658.053345 
	C1024.892822,644.652832 1026.388306,631.091614 1026.811523,617.560974 
	C1027.293213,602.168030 1026.619507,586.716675 1025.904053,571.315979 
	C1025.388062,560.209900 1024.748413,549.008240 1022.796265,538.093811 
	C1019.820801,521.458374 1015.881165,504.982300 1011.953918,488.533356 
	C1006.537170,465.846313 998.127136,444.155670 988.414551,423.025635 
	C977.848267,400.038452 965.712830,377.818970 950.663635,357.437958 
	C939.363403,342.134155 927.746155,326.946594 914.980103,312.877747 
	C903.337769,300.047241 890.131958,288.603088 877.303223,276.889648 
	C862.181213,263.082245 845.349670,251.558762 828.134583,240.483521 
	C799.724487,222.205963 769.399231,208.023376 737.552307,197.095627 
	C716.226440,189.778030 694.448914,183.912140 672.012634,181.004684 
	C655.371216,178.848145 638.734558,175.929520 622.018127,175.242630 
	C595.311035,174.145233 568.525513,174.503113 542.028076,179.025513 
	C528.325867,181.364105 514.544556,183.442047 501.025513,186.605774 
	C478.205231,191.946228 456.075073,199.447388 434.468536,208.696091 
	C411.777161,218.409134 390.109650,229.885223 369.358124,243.164246 
	C349.472321,255.889267 330.681610,270.172241 313.520386,286.300842 
	C299.182007,299.776489 285.380859,314.006226 272.798828,329.115326 
	C260.940277,343.355652 250.546722,358.890411 240.288055,374.372131 
	C222.277191,401.553070 208.710983,431.007843 198.038116,461.764465 
	C188.931717,488.006836 182.122894,514.854126 179.046158,542.517029 
	C177.400040,557.317261 175.679932,572.159851 175.182648,587.023071 
	C174.684464,601.913574 175.380325,616.867432 176.095963,631.767395 
	C176.613403,642.540833 177.279282,653.405640 179.198395,663.990479 
	C182.213531,680.620239 186.139053,697.096375 190.045105,713.550598 
	C195.434158,736.252014 203.933212,757.908081 213.637436,779.042175 
	C224.127060,801.886841 236.150284,823.981201 251.132111,844.216248 
	C262.548615,859.635803 274.213531,874.988342 287.063141,889.199463 
	C302.100739,905.830322 318.576996,921.098755 336.316864,935.007202 
	C356.065399,950.490417 376.782166,964.401062 398.826294,976.316162 
	C426.593964,991.324890 455.633667,1003.388062 486.158081,1011.444580 
	C503.434174,1016.004333 520.971313,1019.785583 538.582397,1022.797485 
	C552.084839,1025.106812 565.864746,1026.385620 579.561829,1026.809448 
	C595.288269,1027.296021 611.092773,1026.856445 626.801880,1025.855225 
	C642.422119,1024.859619 658.060669,1023.265015 673.514954,1020.819763 
	C687.004639,1018.685364 700.249207,1015.001648 714.448792,1011.997498 
z"/>
<path fill="#FFFFFF" opacity="1.000000" stroke="none" 
	d="
M714.025391,1011.999939 
	C700.249207,1015.001648 687.004639,1018.685364 673.514954,1020.819763 
	C658.060669,1023.265015 642.422119,1024.859619 626.801880,1025.855225 
	C611.092773,1026.856445 595.288269,1027.296021 579.561829,1026.809448 
	C565.864746,1026.385620 552.084839,1025.106812 538.582397,1022.797485 
	C520.971313,1019.785583 503.434174,1016.004333 486.158081,1011.444580 
	C455.633667,1003.388062 426.593964,991.324890 398.826294,976.316162 
	C376.782166,964.401062 356.065399,950.490417 336.316864,935.007202 
	C318.576996,921.098755 302.100739,905.830322 287.063141,889.199463 
	C274.213531,874.988342 262.548615,859.635803 251.132111,844.216248 
	C236.150284,823.981201 224.127060,801.886841 213.637436,779.042175 
	C203.933212,757.908081 195.434158,736.252014 190.045105,713.550598 
	C186.139053,697.096375 182.213531,680.620239 179.198395,663.990479 
	C177.279282,653.405640 176.613403,642.540833 176.095963,631.767395 
	C175.380325,616.867432 174.684464,601.913574 175.182648,587.023071 
	C175.679932,572.159851 177.400040,557.317261 179.046158,542.517029 
	C182.122894,514.854126 188.931717,488.006836 198.038116,461.764465 
	C208.710983,431.007843 222.277191,401.553070 240.288055,374.372131 
	C250.546722,358.890411 260.940277,343.355652 272.798828,329.115326 
	C285.380859,314.006226 299.182007,299.776489 313.520386,286.300842 
	C330.681610,270.172241 349.472321,255.889267 369.358124,243.164246 
	C390.109650,229.885223 411.777161,218.409134 434.468536,208.696091 
	C456.075073,199.447388 478.205231,191.946228 501.025513,186.605774 
	C514.544556,183.442047 528.325867,181.364105 542.028076,179.025513 
	C568.525513,174.503113 595.311035,174.145233 622.018127,175.242630 
	C638.734558,175.929520 655.371216,178.848145 672.012634,181.004684 
	C694.448914,183.912140 716.226440,189.778030 737.552307,197.095627 
	C769.399231,208.023376 799.724487,222.205963 828.134583,240.483521 
	C845.349670,251.558762 862.181213,263.082245 877.303223,276.889648 
	C890.131958,288.603088 903.337769,300.047241 914.980103,312.877747 
	C927.746155,326.946594 939.363403,342.134155 950.663635,357.437958 
	C965.712830,377.818970 977.848267,400.038452 988.414551,423.025635 
	C998.127136,444.155670 1006.537170,465.846313 1011.953918,488.533356 
	C1015.881165,504.982300 1019.820801,521.458374 1022.796265,538.093811 
	C1024.748413,549.008240 1025.388062,560.209900 1025.904053,571.315979 
	C1026.619507,586.716675 1027.293213,602.168030 1026.811523,617.560974 
	C1026.388306,631.091614 1024.892822,644.652832 1022.887207,658.053345 
	C1020.474365,674.174866 1017.437439,690.232788 1013.915649,706.151184 
	C1009.299866,727.014648 1001.985291,747.051270 993.717896,766.744934 
	C982.912476,792.484253 969.828552,817.017090 953.890747,839.905579 
	C944.997986,852.676697 935.452698,865.066895 925.347900,876.899902 
	C915.050659,888.958313 904.406555,900.900330 892.647644,911.486145 
	C877.288574,925.313049 861.093811,938.306641 844.511230,950.655151 
	C824.331299,965.682434 802.209167,977.656677 779.357544,988.172607 
	C759.095215,997.497131 738.342529,1005.550903 716.676453,1011.071533 
	C715.905334,1011.268066 715.190063,1011.683899 714.025391,1011.999939 
M241.964569,446.365509 
	C239.310928,452.725189 236.437790,459.003326 234.039917,465.458008 
	C220.260178,502.551178 212.157547,540.970886 210.302155,580.395081 
	C209.286148,601.983826 210.534439,623.782471 212.289902,645.362122 
	C213.463043,659.783386 217.155746,674.020081 220.021347,688.278992 
	C225.327744,714.683105 234.256851,739.931335 245.798096,764.188293 
	C252.282608,777.817200 259.430664,791.186218 267.125854,804.170898 
	C280.575897,826.866089 296.533905,847.805176 314.638275,866.992065 
	C323.620117,876.510864 333.211670,885.487915 342.916504,894.280579 
	C350.894043,901.508362 359.013519,908.727661 367.842834,914.833191 
	C381.722656,924.431091 396.093109,933.353088 410.547607,942.077881 
	C428.054871,952.645142 446.656830,961.056396 465.886292,967.971130 
	C488.158325,975.979858 510.731567,982.991150 534.317139,986.068237 
	C549.972229,988.110535 565.598389,991.017761 581.319824,991.736816 
	C599.018066,992.546387 616.809998,991.376282 634.558655,990.962952 
	C638.148682,990.879395 641.772644,990.580627 645.304260,989.950989 
	C659.623535,987.397949 673.949829,984.859375 688.205383,981.978577 
	C714.598206,976.645142 739.874695,967.791016 764.131836,956.245667 
	C777.760803,949.759033 791.109497,942.571655 804.101868,934.884399 
	C826.806091,921.450989 847.727905,905.478394 866.943176,887.411560 
	C876.113037,878.789673 884.890320,869.674011 893.139954,860.169678 
	C902.513489,849.370361 911.480652,838.167175 919.943848,826.639893 
	C935.711670,805.163330 948.414368,781.907410 959.240845,757.540894 
	C967.869873,738.120239 974.871521,718.173340 979.866516,697.588013 
	C983.250916,683.640198 985.737610,669.439331 987.901306,655.241211 
	C989.793030,642.827759 991.106750,630.285767 991.845703,617.751587 
	C992.329407,609.547974 990.970703,601.252563 991.074280,593.006287 
	C991.302185,574.875793 990.795044,556.813354 986.958740,539.032104 
	C983.259888,521.888306 979.908142,504.623230 975.156067,487.763123 
	C966.178040,455.909729 952.206726,426.146362 934.988953,397.906342 
	C921.078796,375.091187 905.113586,353.799347 886.755310,334.394226 
	C878.447388,325.612427 869.574707,317.334290 860.605225,309.217773 
	C852.247620,301.654907 843.829285,294.047150 834.722656,287.445587 
	C810.830322,270.125549 785.650391,254.888824 758.506714,243.098404 
	C735.644897,233.167892 712.143066,225.382584 687.789368,219.752441 
	C665.837891,214.677673 643.669006,211.248734 621.317017,210.306870 
	C602.044312,209.494766 582.587891,210.522263 563.346802,212.239395 
	C546.608704,213.733170 529.977600,216.910492 513.443359,220.092407 
	C487.960571,224.996429 463.615509,233.746658 440.114594,244.550629 
	C412.962921,257.032959 387.388397,272.213959 363.648041,290.581024 
	C344.172028,305.648956 326.420319,322.361206 309.837646,340.505859 
	C296.186493,355.442902 284.229797,371.572632 273.047272,388.378143 
	C260.973724,406.522766 251.173538,425.861023 241.964569,446.365509 
z"/>
<path fill="#000000" opacity="1.000000" stroke="none" 
	d="
M242.001373,445.971924 
	C251.173538,425.861023 260.973724,406.522766 273.047272,388.378143 
	C284.229797,371.572632 296.186493,355.442902 309.837646,340.505859 
	C326.420319,322.361206 344.172028,305.648956 363.648041,290.581024 
	C387.388397,272.213959 412.962921,257.032959 440.114594,244.550629 
	C463.615509,233.746658 487.960571,224.996429 513.443359,220.092407 
	C529.977600,216.910492 546.608704,213.733170 563.346802,212.239395 
	C582.587891,210.522263 602.044312,209.494766 621.317017,210.306870 
	C643.669006,211.248734 665.837891,214.677673 687.789368,219.752441 
	C712.143066,225.382584 735.644897,233.167892 758.506714,243.098404 
	C785.650391,254.888824 810.830322,270.125549 834.722656,287.445587 
	C843.829285,294.047150 852.247620,301.654907 860.605225,309.217773 
	C869.574707,317.334290 878.447388,325.612427 886.755310,334.394226 
	C905.113586,353.799347 921.078796,375.091187 934.988953,397.906342 
	C952.206726,426.146362 966.178040,455.909729 975.156067,487.763123 
	C979.908142,504.623230 983.259888,521.888306 986.958740,539.032104 
	C990.795044,556.813354 991.302185,574.875793 991.074280,593.006287 
	C990.970703,601.252563 992.329407,609.547974 991.845703,617.751587 
	C991.106750,630.285767 989.793030,642.827759 987.901306,655.241211 
	C985.737610,669.439331 983.250916,683.640198 979.866516,697.588013 
	C974.871521,718.173340 967.869873,738.120239 959.240845,757.540894 
	C948.414368,781.907410 935.711670,805.163330 919.943848,826.639893 
	C911.480652,838.167175 902.513489,849.370361 893.139954,860.169678 
	C884.890320,869.674011 876.113037,878.789673 866.943176,887.411560 
	C847.727905,905.478394 826.806091,921.450989 804.101868,934.884399 
	C791.109497,942.571655 777.760803,949.759033 764.131836,956.245667 
	C739.874695,967.791016 714.598206,976.645142 688.205383,981.978577 
	C673.949829,984.859375 659.623535,987.397949 645.304260,989.950989 
	C641.772644,990.580627 638.148682,990.879395 634.558655,990.962952 
	C616.809998,991.376282 599.018066,992.546387 581.319824,991.736816 
	C565.598389,991.017761 549.972229,988.110535 534.317139,986.068237 
	C510.731567,982.991150 488.158325,975.979858 465.886292,967.971130 
	C446.656830,961.056396 428.054871,952.645142 410.547607,942.077881 
	C396.093109,933.353088 381.722656,924.431091 367.842834,914.833191 
	C359.013519,908.727661 350.894043,901.508362 342.916504,894.280579 
	C333.211670,885.487915 323.620117,876.510864 314.638275,866.992065 
	C296.533905,847.805176 280.575897,826.866089 267.125854,804.170898 
	C259.430664,791.186218 252.282608,777.817200 245.798096,764.188293 
	C234.256851,739.931335 225.327744,714.683105 220.021347,688.278992 
	C217.155746,674.020081 213.463043,659.783386 212.289902,645.362122 
	C210.534439,623.782471 209.286148,601.983826 210.302155,580.395081 
	C212.157547,540.970886 220.260178,502.551178 234.039917,465.458008 
	C236.437790,459.003326 239.310928,452.725189 242.001373,445.971924 
M417.000153,621.631958 
	C416.666779,624.879456 416.349060,628.128723 415.997040,631.374207 
	C414.994385,640.619019 414.065735,649.872986 412.942810,659.103333 
	C411.725586,669.108643 410.348480,679.094910 408.990814,689.082642 
	C408.050385,696.001160 406.906830,702.893799 406.070557,709.824158 
	C405.236603,716.735413 404.672577,723.679321 403.951721,731.000000 
	C406.019196,731.000000 407.652832,731.000000 409.286438,731.000000 
	C435.940430,731.000000 462.598816,731.279541 489.246307,730.863220 
	C499.998962,730.695251 510.852325,729.720215 521.444763,727.876648 
	C556.811157,721.721252 584.490845,703.013794 604.575439,673.637024 
	C620.167175,650.831665 627.927856,624.864380 629.804321,597.465332 
	C630.969604,580.450317 630.541870,563.300964 626.023499,546.552185 
	C620.143311,524.755432 609.750549,505.651581 591.870544,491.512207 
	C572.923340,476.528931 550.827881,470.083191 526.822693,470.018158 
	C498.336426,469.940979 469.849792,470.000000 441.363312,470.000000 
	C439.716797,470.000000 438.070282,470.000000 435.966766,470.000000 
	C435.292297,475.165100 434.594055,480.107422 434.011322,485.063385 
	C432.945129,494.131500 432.029297,503.217896 430.898499,512.277649 
	C429.690735,521.953857 428.214874,531.596863 427.026550,541.275208 
	C425.893555,550.503418 425.055145,559.767456 423.950562,568.999390 
	C422.713776,579.336121 421.363983,589.659912 419.985718,599.978943 
	C419.061249,606.900146 418.001740,613.803406 417.000153,621.631958 
M711.500000,731.000000 
	C740.260681,731.000000 769.021362,731.000000 797.620667,731.000000 
	C798.796997,720.716858 799.912476,710.966187 801.077942,700.778198 
	C766.579590,700.778198 732.838806,700.778198 698.664917,700.778198 
	C708.157471,623.694275 717.598206,547.031128 727.058594,470.208191 
	C715.132751,470.208191 703.703552,470.208191 692.111206,470.208191 
	C681.434509,557.115173 670.780579,643.837036 660.072449,731.000000 
	C676.917480,731.000000 693.708740,731.000000 711.500000,731.000000 
z"/>
<path fill="#FFFFFF" opacity="1.000000" stroke="none" 
	d="
M417.001404,621.173340 
	C418.001740,613.803406 419.061249,606.900146 419.985718,599.978943 
	C421.363983,589.659912 422.713776,579.336121 423.950562,568.999390 
	C425.055145,559.767456 425.893555,550.503418 427.026550,541.275208 
	C428.214874,531.596863 429.690735,521.953857 430.898499,512.277649 
	C432.029297,503.217896 432.945129,494.131500 434.011322,485.063385 
	C434.594055,480.107422 435.292297,475.165100 435.966766,470.000000 
	C438.070282,470.000000 439.716797,470.000000 441.363312,470.000000 
	C469.849792,470.000000 498.336426,469.940979 526.822693,470.018158 
	C550.827881,470.083191 572.923340,476.528931 591.870544,491.512207 
	C609.750549,505.651581 620.143311,524.755432 626.023499,546.552185 
	C630.541870,563.300964 630.969604,580.450317 629.804321,597.465332 
	C627.927856,624.864380 620.167175,650.831665 604.575439,673.637024 
	C584.490845,703.013794 556.811157,721.721252 521.444763,727.876648 
	C510.852325,729.720215 499.998962,730.695251 489.246307,730.863220 
	C462.598816,731.279541 435.940430,731.000000 409.286438,731.000000 
	C407.652832,731.000000 406.019196,731.000000 403.951721,731.000000 
	C404.672577,723.679321 405.236603,716.735413 406.070557,709.824158 
	C406.906830,702.893799 408.050385,696.001160 408.990814,689.082642 
	C410.348480,679.094910 411.725586,669.108643 412.942810,659.103333 
	C414.065735,649.872986 414.994385,640.619019 415.997040,631.374207 
	C416.349060,628.128723 416.666779,624.879456 417.001404,621.173340 
M458.002625,573.714111 
	C456.339294,586.957703 454.666107,600.200012 453.015076,613.445129 
	C451.001007,629.603027 448.933716,645.754822 447.024567,661.925171 
	C445.454620,675.222717 444.081940,688.543457 442.605835,702.000000 
	C459.674957,702.000000 476.502411,702.209106 493.320862,701.910095 
	C501.486267,701.764954 509.730530,701.239624 517.772278,699.891235 
	C538.850952,696.356873 555.674622,685.133362 568.629150,668.602722 
	C584.965088,647.757324 591.905762,623.145996 593.820190,597.161865 
	C594.581543,586.829590 593.906616,576.292480 592.880615,565.948364 
	C590.859375,545.568787 583.524231,527.568054 567.438660,513.888000 
	C556.714966,504.767944 544.196716,499.678741 530.399902,499.180298 
	C510.763092,498.470856 491.081512,498.995514 471.419067,499.009308 
	C469.978821,499.010315 468.538605,499.143555 467.235321,499.208496 
	C466.452820,507.098511 465.826813,514.598572 464.939545,522.067505 
	C463.730743,532.243164 462.361694,542.400574 460.986176,552.555542 
	C460.070923,559.312439 459.024384,566.051514 458.002625,573.714111 
z"/>
<path fill="#FFFFFF" opacity="1.000000" stroke="none" 
	d="
M711.000000,731.000000 
	C693.708740,731.000000 676.917480,731.000000 660.072449,731.000000 
	C670.780579,643.837036 681.434509,557.115173 692.111206,470.208191 
	C703.703552,470.208191 715.132751,470.208191 727.058594,470.208191 
	C717.598206,547.031128 708.157471,623.694275 698.664917,700.778198 
	C732.838806,700.778198 766.579590,700.778198 801.077942,700.778198 
	C799.912476,710.966187 798.796997,720.716858 797.620667,731.000000 
	C769.021362,731.000000 740.260681,731.000000 711.000000,731.000000 
z"/>
<path fill="#000000" opacity="1.000000" stroke="none" 
	d="
M458.019623,573.256348 
	C459.024384,566.051514 460.070923,559.312439 460.986176,552.555542 
	C462.361694,542.400574 463.730743,532.243164 464.939545,522.067505 
	C465.826813,514.598572 466.452820,507.098511 467.235321,499.208496 
	C468.538605,499.143555 469.978821,499.010315 471.419067,499.009308 
	C491.081512,498.995514 510.763092,498.470856 530.399902,499.180298 
	C544.196716,499.678741 556.714966,504.767944 567.438660,513.888000 
	C583.524231,527.568054 590.859375,545.568787 592.880615,565.948364 
	C593.906616,576.292480 594.581543,586.829590 593.820190,597.161865 
	C591.905762,623.145996 584.965088,647.757324 568.629150,668.602722 
	C555.674622,685.133362 538.850952,696.356873 517.772278,699.891235 
	C509.730530,701.239624 501.486267,701.764954 493.320862,701.910095 
	C476.502411,702.209106 459.674957,702.000000 442.605835,702.000000 
	C444.081940,688.543457 445.454620,675.222717 447.024567,661.925171 
	C448.933716,645.754822 451.001007,629.603027 453.015076,613.445129 
	C454.666107,600.200012 456.339294,586.957703 458.019623,573.256348 
z"/>
</svg>